<svg width="34" height="37" viewBox="0 0 34 37" fill="none" xmlns="http://www.w3.org/2000/svg">
<path d="M14.8594 19.0781H17.6719V28.2188M1.5 12.75H32.4375M24 7.125V1.5M9.9375 7.125V1.5M4.3125 35.25H29.625C30.3709 35.25 31.0863 34.9537 31.6137 34.4262C32.1412 33.8988 32.4375 33.1834 32.4375 32.4375V7.125C32.4375 6.37908 32.1412 5.66371 31.6137 5.13626C31.0863 4.60882 30.3709 4.3125 29.625 4.3125H4.3125C3.56658 4.3125 2.85121 4.60882 2.32376 5.13626C1.79632 5.66371 1.5 6.37908 1.5 7.125V32.4375C1.5 33.1834 1.79632 33.8988 2.32376 34.4262C2.85121 34.9537 3.56658 35.25 4.3125 35.25Z" stroke="#00417D" stroke-width="3" stroke-linecap="round" stroke-linejoin="round"/>
</svg>
